<?xml version="1.0" standalone="no"?><!DOCTYPE svg PUBLIC "-//W3C//DTD SVG 1.1//EN" "http://www.w3.org/Graphics/SVG/1.1/DTD/svg11.dtd"><svg t="1691139036046" class="icon" viewBox="0 0 1024 1024" version="1.1" xmlns="http://www.w3.org/2000/svg" p-id="4315" width="32" height="32" xmlns:xlink="http://www.w3.org/1999/xlink"><path d="M777.435872 279.591856c-11.757007 165.356608-96.597083 366.060088-254.103045 602.717252l-18.583656 27.913409-16.308106-29.240813C319.519429 577.461306 235.172389 378.009378 235.172389 278.226526c0-37.546569 7.281759-74.144993 21.238463-108.050683 0-0.075852-3.034066-9.026347-12.667226-29.999329a565.701644 565.701644 0 0 1-4.058064-9.064273c-15.246183-34.777984-18.128546-57.116296 2.085921-75.093139 16.346032-14.563518 36.522572-15.81507 64.62561-10.08827 3.90636 0.834368 7.661017 1.668736 13.236114 3.034066 18.318175 4.36147 25.865414 5.233764 24.765565 6.068133a266.049681 266.049681 0 0 1 336.895127 10.619231c-4.020138-3.489176-5.006209-3.489176-3.527102-3.90636 4.437322-1.289478 2.427253-0.493036 22.376238-8.495385 5.992281-2.389327 10.581306-4.095989 15.170331-5.688874 31.061253-10.619232 54.840747-10.164122 71.224704 11.188119 15.170331 19.72143 11.605303 42.211446-3.034066 71.983221-2.313475 4.626951-4.778654 9.215976-8.154053 15.397886-12.36382 22.490016-16.156403 31.326734-16.308106 31.023327 14.146334 37.167311 20.745428 69.669745 18.431953 102.43766zM736.931088 276.861196c1.896291-26.35845-3.640879-53.62712-15.928848-85.977851-6.409465-16.801142-4.095989-22.186609 18.54573-63.374058 3.109918-5.688874 5.309616-9.860715 7.319685-13.880853 8.609163-17.445881 10.164122-27.306596 7.130055-31.250882-2.199698-2.882363-9.291828-3.034066-25.258601 2.427253-3.792583 1.327404-7.81272 2.844437-13.198188 5.00621-22.755497 9.064273-19.797282 7.964424-26.396376 9.822789-13.918779 3.982212-25.031046 4.058064-34.891761-4.513174a224.900158 224.900158 0 0 0-147.910728-55.637189c-49.986241 0-97.545229 16.497735-136.912238 46.610842-14.335963 10.960564-22.793422 9.974493-59.543549 1.175701a353.279084 353.279084 0 0 0-11.870784-2.654808c-16.308106-3.337473-25.144824-2.806511-28.899481 0.530962-1.896291 1.668736-0.682665 10.99849 7.850647 30.492365 1.061923 2.465179 2.199698 5.006209 3.792583 8.45746 17.142474 37.35694 19.72143 45.017957 13.274039 60.757176a245.15255 245.15255 0 0 0-18.318175 93.373387c0 87.53281 77.44454 273.672772 232.106065 554.437674 142.146002-219.211284 218.414841-404.66858 229.109925-555.803004z" fill="#d4237a" p-id="4316"></path><path d="M335.59998 760.112092C268.585043 787.115281 227.397594 828.871617 227.397594 876.544382 227.397594 961.043126 356.23163 1024 511.841301 1024s284.443707-62.956874 284.443707-147.455618c0-44.486996-35.953685-83.929856-95.53516-111.008897-10.050344-4.551099-22.224535-0.872294-27.26867 8.229904-5.006209 9.102199-0.948146 20.17654 9.102199 24.72764 47.17973 21.466018 73.08307 49.834537 73.08307 78.051353 0 57.98859-107.70935 110.591713-243.825146 110.591714-136.153721 0-243.825146-52.603123-243.825146-110.591714 0-30.416514 30.188959-61.022657 84.08156-82.754156 10.239973-4.133915 14.866924-15.018628 10.315825-24.310455-4.551099-9.329754-16.573587-13.501595-26.81356-9.367679zM511.841301 417.186758C417.595619 417.186758 341.175077 349.299527 341.175077 265.483448s76.420543-151.70331 170.666224-151.70331S682.507525 181.667369 682.507525 265.483448s-76.420543 151.70331-170.666224 151.70331z m0-37.925827c70.693743 0 127.999668-50.934386 127.999668-113.777483S582.535044 151.705965 511.841301 151.705965 383.841633 202.640352 383.841633 265.483448s57.305926 113.777483 127.999668 113.777483z" fill="#d4237a" p-id="4317"></path><path d="M252.049382 93.679449l51.806681 13.956705a18.962914 18.962914 0 0 1 10.619231 29.202887l-0.493036 0.682665a18.962914 18.962914 0 0 1-31.061252 0L252.087308 93.679449zM718.0061 84.31177l-18.962914 3.754656a14.032556 14.032556 0 0 0-6.902501 24.007049 14.032556 14.032556 0 0 0 23.514014-8.533311l2.351401-19.228394z" fill="#d4237a" p-id="4318"></path></svg>